<svg width="40" height="40" viewBox="0 0 40 40" fill="none" xmlns="http://www.w3.org/2000/svg">
<path d="M0 20.0005C0 8.95397 8.95432 0 20.0002 0C31.0457 0 40 8.95397 40 20.0005C40 31.0465 31.0457 40 20.0002 40C8.9542 40 0 31.0465 0 20.0005Z" fill="#724A5D"/>
<mask id="mask0_221_2140" style="mask-type:luminance" maskUnits="userSpaceOnUse" x="0" y="0" width="40" height="40">
<path d="M0 20.0005C0 8.95397 8.95432 0 20.0002 0C31.0457 0 40 8.95397 40 20.0005C40 31.0465 31.0457 40 20.0002 40C8.9542 40 0 31.0465 0 20.0005Z" fill="white"/>
</mask>
<g mask="url(#mask0_221_2140)">
<path d="M15.1143 27.2661H23.6145L24.4699 28.9261L14.5608 29.1033L15.1143 27.2661Z" fill="#812E1C"/>
<path d="M25.8021 23.0935C23.4328 25.9293 20.421 26.8775 19.2395 26.8775C18.0323 26.8775 14.7681 26.0459 12.3321 23.0935C10.9528 21.4207 9.98367 16.6273 9.62047 14.3288C9.4122 13.0084 9.24297 10.2049 10.1692 8.79797C11.6222 6.59025 14.3429 5.03782 18.8891 5.03782C20.609 5.03782 23.0277 4.98076 23.3163 6.12384C25.6395 6.04248 26.8169 7.24833 27.3902 8.28158C28.2275 9.78752 28.539 11.8977 28.3241 13.9076C28.0417 16.5579 27.2239 21.3932 25.8021 23.0935Z" fill="#432918"/>
<path d="M11.5908 17.7357C11.5908 17.7357 11.8733 15.5404 9.96939 16.0772C8.50391 16.4899 10.0098 20.5601 10.975 20.9082C11.7999 21.2058 11.9797 20.573 11.9797 20.573L11.5908 17.7357Z" fill="#F9BB8D"/>
<path d="M26.6151 17.7357C26.6151 17.7357 26.3336 15.5404 28.237 16.0772C29.7019 16.4899 28.1971 20.5601 27.2318 20.9082C26.4059 21.2058 26.2271 20.573 26.2271 20.573L26.6151 17.7357Z" fill="#F9BB8D"/>
<path d="M30.185 42.7194L31.2463 31.3314C31.2463 31.3314 27.2608 29.5835 24.9723 29.0353C22.816 28.518 20.2922 28.5755 20.0273 28.583C19.7644 28.5754 17.2395 28.5178 15.0837 29.0353C12.7952 29.5835 8.87573 31.3314 8.87573 31.3314C8.87573 31.3314 9.66176 36.6265 10.424 42.7194H30.185Z" fill="#F9BB8D"/>
<path d="M19.2451 32.7089C19.2451 32.7089 24.5867 29.0629 24.2657 28.8874C22.4061 27.866 22.5174 25.004 22.5174 25.004L15.7855 24.6516C15.7855 24.6516 16.2106 28.7651 14.2169 29.2744C14.0708 29.311 19.2451 32.7089 19.2451 32.7089Z" fill="#F9BB8D"/>
<path d="M26.8091 18.7266C26.4867 21.1349 26.2467 22.4188 24.9961 24.229C22.9121 27.2474 20.2622 28.2568 19.2229 28.2568C18.1606 28.2568 15.2882 27.372 13.1457 24.229C11.9328 22.4488 11.7307 20.912 11.4016 18.7266C11.0051 16.1009 10.9751 17.0282 10.9751 14.5504C10.9751 9.50406 12.9222 5.86035 18.5785 5.86035C24.2406 5.86035 27.1273 9.03182 27.2134 14.2104C27.2609 17.0491 27.1629 16.0868 26.8091 18.7266Z" fill="#F9BB8D"/>
<path d="M12.3022 14.945C13.0616 14.1547 14.9344 14.1884 15.9976 14.1552C17 14.1263 19.4092 14.1457 20.1477 13.285C20.803 12.5219 22.003 11.4097 23.0857 11.4097C25.592 11.4097 26.0114 15.1446 26.407 17.1593C26.5134 17.7005 26.6505 18.2525 26.7979 18.8117C26.8017 18.7826 26.8054 18.756 26.8092 18.7266C27.163 16.0866 27.261 17.0491 27.2134 14.2104C27.1273 9.03183 24.4005 5.51562 18.7393 5.51562C13.082 5.51562 10.9751 9.50405 10.9751 14.5504C10.9751 16.9136 11.0031 16.1875 11.3493 18.3914C11.8333 17.3694 11.4054 15.8793 12.3022 14.945Z" fill="#E7DCD6"/>
<path d="M11.5015 19.3889C11.783 21.233 11.8086 22.5599 12.8956 24.1539C15.0381 27.2973 18.1606 28.2569 19.2229 28.2569C20.2623 28.2569 23.1822 27.2598 25.2667 24.24C26.3969 22.6048 26.4307 21.3846 26.7169 19.389L24.4056 23.1782C24.4056 23.1782 22.7856 25.26 20.7078 26.0307C20.2608 26.1961 19.5495 24.6132 19.0997 24.6132C18.5329 24.6132 17.9604 26.2341 17.3879 25.985C15.3885 25.1205 13.584 23.1782 13.584 23.1782L11.5015 19.3889Z" fill="#432918"/>
<path d="M11.4606 14.1657C13.3359 12.7492 19.9946 14.6241 22.4062 10.453C25.281 10.4897 25.8878 13.3236 26.348 14.3568C26.8069 15.3901 26.7969 18.816 26.8092 18.7266C27.163 16.0866 27.5814 17.119 27.5339 14.2804C27.4483 9.10086 24.4004 5.51562 18.7393 5.51562C13.0821 5.51562 10.6951 9.50265 10.6951 14.548C10.6951 17.0262 11.0052 16.1009 11.4016 18.7266C11.4154 18.8159 10.7683 14.6887 11.4606 14.1657Z" fill="#432918"/>
<path d="M9.00762 42.7194L10.0361 39.6001C10.0361 39.6001 12.7768 30.1627 8.87594 31.3314C6.4301 32.0637 4.81108 37.9388 3.88721 42.7194H9.00762Z" fill="#F9BB8D"/>
<path d="M31.2959 42.7194H36.4169C35.4931 37.9388 33.8745 32.0637 31.429 31.3314C27.5272 30.1627 30.2689 39.6001 30.2689 39.6001L31.2959 42.7194Z" fill="#F9BB8D"/>
<path d="M24.8167 17.7059C24.8167 17.7059 24.743 18.1272 24.3636 18.4862C24.0773 18.7568 22.3347 18.9374 22.1497 18.8553C21.8753 18.7321 21.5173 18.1439 21.5173 18.1439C21.5173 18.1439 22.1317 17.2996 22.8891 17.2996C23.6452 17.2993 24.8167 17.7059 24.8167 17.7059Z" fill="white"/>
<path d="M22.8893 17.4646C23.436 17.4646 24.1973 17.6766 24.5792 17.7931C24.6662 17.8212 24.621 18.1199 24.4746 18.3685C24.7865 18.0827 24.817 17.7056 24.817 17.7056C24.817 17.7056 23.6454 17.2991 22.8894 17.2991C22.1319 17.2991 21.5176 18.1435 21.5176 18.1435C21.5176 18.1435 21.5419 18.2262 21.606 18.2785C21.7404 18.1094 22.2325 17.4646 22.8893 17.4646Z" fill="#432918"/>
<path d="M23.7247 18.0663C23.7247 18.4918 23.3809 18.8351 22.9559 18.8351C22.5323 18.8351 22.1885 18.4918 22.1885 18.0663C22.1885 17.6425 22.5323 17.2993 22.9559 17.2993C23.3809 17.2993 23.7247 17.6425 23.7247 18.0663Z" fill="#432918"/>
<path d="M23.6144 18.068C23.6144 18.3932 22.7014 17.4797 23.0261 17.4797C23.351 17.4799 23.6144 17.7432 23.6144 18.068Z" fill="white"/>
<path d="M12.8926 16.4264C12.8926 16.4264 13.3044 16.1487 14.2244 15.8496C15.2263 15.522 16.5966 16.0235 16.6493 16.0235C16.743 16.0235 16.8808 15.9974 16.8808 15.7396C16.8808 15.4815 16.8058 15.2727 16.7116 15.2727C16.6602 15.2727 15.3023 14.9352 14.2843 15.2538C13.506 15.4953 12.8926 16.4264 12.8926 16.4264Z" fill="#432918"/>
<path d="M25.5063 16.4264C25.5063 16.4264 25.0945 16.1487 24.1745 15.8496C23.1731 15.522 21.8023 16.0235 21.7491 16.0235C21.655 16.0235 21.5176 15.9974 21.5176 15.7396C21.5176 15.4815 21.5936 15.2727 21.6873 15.2727C21.7386 15.2727 23.0966 14.9352 24.1146 15.2538C24.8929 15.4953 25.5063 16.4264 25.5063 16.4264Z" fill="#432918"/>
<path d="M13.582 17.7059C13.582 17.7059 13.6562 18.1272 14.0357 18.4862C14.3215 18.7568 16.0649 18.9374 16.2486 18.8553C16.5233 18.7321 16.881 18.1439 16.881 18.1439C16.881 18.1439 16.2672 17.2996 15.5107 17.2996C14.7536 17.2993 13.582 17.7059 13.582 17.7059Z" fill="white"/>
<path d="M15.5107 17.4646C14.9629 17.4646 14.2016 17.6766 13.8208 17.7931C13.7332 17.8212 13.778 18.1199 13.924 18.3685C13.6125 18.0827 13.582 17.7056 13.582 17.7056C13.582 17.7056 14.7537 17.2991 15.5107 17.2991C16.2672 17.2991 16.881 18.1435 16.881 18.1435C16.881 18.1435 16.8572 18.2262 16.793 18.2785C16.6584 18.1094 16.1668 17.4646 15.5107 17.4646Z" fill="#432918"/>
<path d="M14.6748 18.0663C14.6748 18.4918 15.0186 18.8351 15.4432 18.8351C15.8663 18.8351 16.2106 18.4918 16.2106 18.0663C16.2106 17.6425 15.8663 17.2993 15.4432 17.2993C15.0186 17.2993 14.6748 17.6425 14.6748 18.0663Z" fill="#432918"/>
<path d="M14.7852 18.068C14.7852 18.3932 15.6981 17.4797 15.3729 17.4797C15.0482 17.4799 14.7852 17.7432 14.7852 18.068Z" fill="white"/>
<path d="M18.9229 21.1689L18.2344 20.624L18.9229 19.0164V21.1689Z" fill="#E09D72"/>
<path d="M17.0569 23.4497L16.7983 23.199L21.4343 22.949L20.6017 23.4497H17.0569Z" fill="#E09D72"/>
<path d="M9.28583 42.7194L10.0362 39.6001C10.0362 39.6001 12.7769 30.1627 8.87602 31.3314C6.42727 32.0651 4.36509 37.9374 3.39136 42.7194H9.28583Z" fill="#D06037"/>
<path d="M9.28572 42.7195L10.0361 39.6002C10.0361 39.6002 10.1997 39.0319 10.3917 38.196C9.46923 39.2697 8.63334 41.4741 8.05129 42.1659C7.88299 42.3666 7.70703 42.5477 7.52734 42.7193H9.28572V42.7195Z" fill="#E9E9E9"/>
<path d="M31.0429 42.7194H36.6094C35.6708 37.9388 33.8744 32.0647 31.429 31.3314C27.5272 30.1627 30.2689 39.6001 30.2689 39.6001C30.2689 39.6001 30.6696 41.2184 31.0429 42.7194Z" fill="#D06037"/>
<path opacity="0.4" d="M35.1269 42.7193H36.609C35.7897 38.5464 34.3176 33.5409 32.3291 31.8481C33.5183 33.8814 34.3776 36.2293 34.8601 38.4974C35.1706 39.959 35.2053 41.3394 35.1269 42.7193Z" fill="white"/>
<path d="M31.0427 42.7195H32.5809C31.7912 41.6039 31.2007 39.8048 30.6291 37.2262C30.6234 37.2005 29.8935 38.0411 29.875 38.025C30.0813 38.9541 30.2686 39.6003 30.2686 39.6003C30.2686 39.6003 30.6694 41.2184 31.0427 42.7195Z" fill="#E9E9E9"/>
<path d="M14.887 30.7766C14.887 30.7766 15.9511 31.7024 19.6465 31.7024C23.342 31.7024 24.4057 30.7766 24.4057 30.7766V36.5281H14.887V30.7766Z" fill="white"/>
<path d="M30.185 42.7193L31.2463 31.3313C31.2463 31.3313 26.9313 29.2177 24.4696 28.9258C22.4393 33.8732 19.4686 35.9151 19.4686 35.9151C19.4686 35.9151 16.2829 32.8628 14.5606 29.1031C12.2717 29.6514 8.87573 31.3313 8.87573 31.3313C8.87573 31.3313 9.66176 36.6264 10.424 42.7193H30.185Z" fill="#D06037"/>
<path d="M11.8257 42.7194C11.685 42.2519 11.5338 41.7879 11.354 41.3291C10.946 40.2887 10.3755 39.3344 9.85815 38.3516C10.0398 39.7086 10.2319 41.1902 10.423 42.7194H11.8257Z" fill="#E9E9E9"/>
<path d="M21.5176 30.1804L23.6145 27.2661L24.4698 28.9261C24.4698 28.9261 23.2098 33.9253 19.4688 35.9153C21.4115 34.193 21.5176 30.1804 21.5176 30.1804Z" fill="#A9502B"/>
<path d="M23.6143 27.2661L23.5767 27.3179C23.6299 32.777 19.7871 35.6329 19.4685 35.9153C23.2096 33.9254 24.4696 28.9261 24.4696 28.9261L23.6143 27.2661Z" fill="#E9E9E9"/>
<path d="M17.6267 30.1804L15.1143 27.2661L14.5608 29.1034C14.5608 29.1034 15.7276 33.9253 19.4687 35.9153C17.5267 34.193 17.6267 30.1804 17.6267 30.1804Z" fill="#A9502B"/>
<path d="M16.8963 32.5512C16.0928 31.1066 15.6082 29.5157 14.9868 27.9912C14.9672 27.9427 14.954 27.8937 14.9392 27.8452L14.5608 29.1034C14.5608 29.1034 15.7276 33.9252 19.4687 35.9153C19.0217 35.5187 18.6875 35 18.4303 34.4384C17.8321 33.9106 17.31 33.2934 16.8963 32.5512Z" fill="#E9E9E9"/>
<path d="M21.9334 41.9043H19.4685V36.0776L20.061 41.3588L21.9334 41.9043Z" fill="#A9502B"/>
<path d="M21.3177 36.7376C21.3177 37.0072 21.0985 37.2258 20.8295 37.2258C20.5598 37.2258 20.3416 37.0071 20.3416 36.7376C20.3416 36.468 20.5598 36.2498 20.8295 36.2498C21.0985 36.2498 21.3177 36.468 21.3177 36.7376Z" fill="#F8AB08"/>
<path d="M21.3177 38.6468C21.3177 38.9163 21.0985 39.135 20.8295 39.135C20.5598 39.135 20.3416 38.9163 20.3416 38.6468C20.3416 38.3777 20.5598 38.1594 20.8295 38.1594C21.0985 38.1594 21.3177 38.3777 21.3177 38.6468Z" fill="#F8AB08"/>
</g>
</svg>
